<?xml version="1.0" encoding="UTF-8"?>
<svg clip-rule="evenodd" fill-rule="evenodd" stroke-linejoin="round" stroke-miterlimit="2" version="1.1" viewBox="0 0 135 39" xml:space="preserve" xmlns="http://www.w3.org/2000/svg" xmlns:xlink="http://www.w3.org/1999/xlink"><defs><clipPath id="e"><rect transform="scale(-1)" width="200" height="200"/></clipPath><clipPath id="d"><rect transform="scale(-1)" width="200" height="200"/></clipPath></defs>
    <rect width="135" height="39" stroke-width=".3628"/><rect x="30" y="4.9912" width="5.0001" height="5" fill="#be1d47"/><rect x="25" y="10.003" width="5.0001" height="5" fill="#be1d47"/><rect x="20" y="14.995" width="5.0001" height="5" fill="#be1d47"/><rect x="15" y="20.006" width="5.0001" height="5" fill="#be1d47"/><rect x="10" y="24.998" width="5.0001" height="5" fill="#be1d47"/><rect x="5" y="4.9912" width="5.0001" height="5" fill="#be1d47"/><rect id="h" x="35" y="10.003" width="5.0001" height="20.003" fill="#be1d47" stroke-width="2.0002"/><rect x="60" y="15" width="5.0001" height="5" fill="#fff"/><rect x="65" y="20" width="5.0001" height="5" fill="#fff"/><rect x="85.003" y="10" width="5.0001" height="5" fill="#fff"/><rect x="85" y="25" width="5.0001" height="5" fill="#fff"/><rect x="111.5" y="10" width="5.0001" height="5" fill="#fff"/><rect x="111.5" y="20" width="5.0001" height="5" fill="#fff"/><rect id="b" x="55" y="10" width="5.0001" height="20" fill="#fff" stroke-width="2"/><rect transform="scale(-.675 -.195)" x="-14.815" y="-179.5" width="7.4075" height="25.641" clip-path="url(#d)" fill="#be1d47" stroke-width="2.7563"/><rect transform="scale(-.675 -.195)" x="-51.852" y="-179.5" width="7.4075" height="25.641" clip-path="url(#e)" fill="#be1d47" stroke-width="2.7563"/>
<use transform="matrix(1 0 0 1.0022 15 -.021914)" xlink:href="#b"/><use id="g" transform="translate(25)" xlink:href="#b"/><use id="f" transform="translate(10)" xlink:href="#g"/><use id="a" transform="translate(16.5)" xlink:href="#f"/><use transform="matrix(1 0 0 1.0022 20 -.021914)" xlink:href="#a"/><use transform="translate(10)" xlink:href="#a"/><use id="c" transform="matrix(1 0 0 .99984 -35 -.0014045)" xlink:href="#h"/><use transform="matrix(0 1 -.99984 0 39.998 0)" xlink:href="#c"/><rect transform="rotate(-90)" x="-39" y="10" width="4" height="20" fill="#be1d47" stroke-width="1.7888"/></svg>
