<?xml version="1.0" encoding="UTF-8"?>
<svg width="32" height="32" version="1.1" viewBox="0 0 8.47 8.47" xmlns="http://www.w3.org/2000/svg" xmlns:xlink="http://www.w3.org/1999/xlink"><defs><linearGradient id="a" x1="3.4" x2=".83" y1="-3.4" y2="-.83" gradientTransform="matrix(-2.35 0 0 -2.21 9.21 -.436)" gradientUnits="userSpaceOnUse"><stop offset="0"/><stop stop-color="#1a1a1a" offset=".6"/><stop stop-color="#bfbfbf" offset="1"/></linearGradient></defs><path d="m4.5 6v2.05h-3.26c-0.459 0-0.828-0.346-0.828-0.776v-6.08c0-0.43 0.369-0.776 0.828-0.776h5.98c0.459 0 0.828 0.346 0.828 0.776l-2.15e-4 4.81z" fill="none" stroke="url(#a)" stroke-width=".828"/><path d="m4.92 8.47h0.295l0.711-0.879 0.708 0.879h0.295l-0.853-1.05 0.802-1h-0.291l-0.66 0.823-0.664-0.823h-0.295l0.802 1zm2.68 0h0.251v-1.87h0.572s0.0614-0.198 0-0.188c-0.677 0.106-0.679 0.102-1.39 0-0.0615-0.0088 0 0.188 0 0.188h0.572z" fill="#9a2727" fill-opacity=".82" stroke="#fff" stroke-dasharray="0.02, 0.02" stroke-width=".04"/></svg>